# xmcd CD database file
#
# Track frame offsets:
#	150
#	17474
#	31975
#	48108
#	64458
#	78121
#	95037
#	111426
#	128919
#	148851
#	163538
#	181068
#	197317
#	210559
#	228848
#
# Disc length: 3261 seconds
#
# Revision: 0
# Processed by: cddbd v1.5PL3 Copyright (c) Steve Scherf et al.
# Submitted via: CDex 1.50
#
DISCID=c00cbb0f
DTITLE=Best of Latino - Best of latino
DYEAR=2002
DGENRE=Salsa
TTITLE0=Macarena, Los del Mar
TTITLE1=Kalimba de Luna, Tony Esposito
TTITLE2=(un, dos, tres) Maria, Don Juan
TTITLE3=La Bamba, Los latinos
TTITLE4=Brasilia Carnaval, Chocolat's
TTITLE5=Que tal America, Two man sound
TTITLE6=Que pasa manana, Franky Paolo
TTITLE7=Ritmo de la noche, Lorca
TTITLE8=Estoy aqui, Carmina
TTITLE9=Lambada, Ellice et carioca
TTITLE10=Donde est la party, Fiesta disco
TTITLE11=El ritmo loco, Star System
TTITLE12=Anna Maria, Gitano boys
TTITLE13=Tu cuerpo, Jazzy Mel
TTITLE14=Latino beat, Jackye Jones
EXTD=YEAR: 2002
EXTT0=
EXTT1=
EXTT2=
EXTT3=
EXTT4=
EXTT5=
EXTT6=
EXTT7=
EXTT8=
EXTT9=
EXTT10=
EXTT11=
EXTT12=
EXTT13=
EXTT14=
PLAYORDER=
